# xmcd CD database file
#
# Track frame offsets:
#	150
#	13740
#	66332
#	96037
#	149467
#	181842
#	209315
#	229257
#	246100
#
# Disc length: 3542 seconds
#
# Revision: 1
# Processed by: cddbd v1.5.2PL0 Copyright (c) Steve Scherf et al.
# Submitted via: CDex 1.70beta2
#
DISCID=7c0dd409
DTITLE=Zbigniew Namysłowski - Mozart Goes Jazz
DYEAR=1998
DGENRE=Jazz
TTITLE0=Zapowiedz
TTITLE1=Allegro
TTITLE2=Larghetto
TTITLE3=Minuetto
TTITLE4=Soul Variazione
TTITLE5=Variazione Caribiense
TTITLE6=Variazione Di Blue
TTITLE7=Allegro Finalle
TTITLE8=Wariacja Goralska
EXTD=YEAR: 1998
EXTT0=
EXTT1=
EXTT2=
EXTT3=
EXTT4=
EXTT5=
EXTT6=
EXTT7=
EXTT8=
PLAYORDER=
